<svg width="180" height="30" viewBox="0 0 180 30" fill="none" xmlns="http://www.w3.org/2000/svg">
<g clip-path="url(#clip0_22_1439)">
<g clip-path="url(#clip1_22_1439)">
<g clip-path="url(#clip2_22_1439)">
<mask id="mask0_22_1439" style="mask-type:luminance" maskUnits="userSpaceOnUse" x="0" y="0" width="180" height="30">
<path d="M179.508 0.97583H0V29.0239H179.508V0.97583Z" fill="white"/>
</mask>
<g mask="url(#mask0_22_1439)">
<mask id="mask1_22_1439" style="mask-type:luminance" maskUnits="userSpaceOnUse" x="0" y="0" width="28" height="29">
<path d="M27.5806 0.97583H0V28.5565H27.5806V0.97583Z" fill="white"/>
</mask>
<g mask="url(#mask1_22_1439)">
<path fill-rule="evenodd" clip-rule="evenodd" d="M0 14.763C0 7.14916 6.17333 0.97583 13.7871 0.97583C21.4009 0.97583 27.5742 7.14916 27.5742 14.763C27.5742 22.3767 21.4009 28.55 13.7871 28.55C6.17333 28.55 0 22.3767 0 14.763ZM11.8065 11.046L6.2312 3.45802L8.61051 8.46099L4.16699 5.15569L10.5268 12.0943L2.48219 7.21347L6.59131 10.9175L1.2218 9.56705L9.75513 13.5411L0.450138 12.1135L5.66531 13.9656L0.192917 14.7693L9.60077 15.1809L0.450138 17.4252L5.97398 17.1422L1.2218 19.9781L10.0767 16.7564L2.47576 22.3253L7.47873 19.946L4.17986 24.383L11.1185 18.0232L6.2312 26.0679L9.94165 21.9716L8.59122 27.3282L12.5717 18.8013L11.1377 28.0999L12.9319 22.8976L13.7935 28.3699V18.9814L16.4429 28.1063L16.16 22.5825L18.9959 27.3282L15.7806 18.4863L21.3495 26.0679L18.9701 21.0713L23.4072 24.3766L17.0538 17.438L25.0985 22.3188L20.9958 18.6148L26.3589 19.9717L17.832 15.9912L27.1305 17.4252L21.9153 15.5732L27.3878 14.7693L17.9927 14.3578L27.1305 12.12L21.6067 12.4029L26.3524 9.56705L17.5168 12.7823L25.1048 7.22632L20.1019 9.59277L23.4072 5.16212L16.4622 11.5091L21.343 3.46445L17.639 7.56071L18.9959 2.19763L15.0089 10.731L16.4429 1.4324L14.5909 6.64114L13.7935 1.16875L13.3819 10.5638L11.1377 1.42597L11.4206 6.94981L8.57835 2.20407L11.8 11.046H11.8065Z" fill="white"/>
</g>
<path fill-rule="evenodd" clip-rule="evenodd" d="M36.6019 25.2407C37.0698 24.9985 37.2973 24.8742 37.2278 23.9299V6.16302C37.2278 6.16302 37.4237 4.75906 36.4629 4.75906V4.71558H45.5467C50.4711 4.71558 54.2198 7.13833 54.2198 11.0831C54.2198 16.0466 48.2713 17.9351 43.3469 17.1152V23.9424C43.3153 24.7996 43.6567 25.1226 44.036 25.2531V25.278H36.6019V25.2531V25.2407ZM43.29 5.1877L43.309 16.0342C43.309 16.6306 44.2192 16.5996 44.864 16.4007C46.4697 15.9099 48.246 13.9656 48.246 11.1638C48.246 6.74075 44.6049 4.99512 43.29 5.1877ZM90.6185 18.5191C90.3276 20.8487 85.9406 24.6257 83.8546 24.7251C82.3185 24.7996 81.8632 24.7251 81.0984 24.7251C80.3335 24.7251 79.9542 24.5822 79.9542 23.7871V14.9595C81.1679 15.3136 81.8443 15.6367 82.3753 15.9721C84.6953 17.4319 85.201 18.5191 85.201 18.5191L85.2895 18.5315V9.98974L85.201 9.97732C85.201 9.97732 84.7269 11.4185 82.4133 12.9654C81.2753 13.7233 80.2387 14.0774 79.9542 14.1643V5.29331H83.6649C86.8762 5.4921 89.095 9.3064 89.7714 10.4246H89.803V4.7777H72.8806V4.82739C73.4558 4.82739 73.6518 5.59771 73.6518 6.10711V24.1163C73.6518 24.7934 73.2219 25.2034 72.8679 25.2034V25.2593H90.6311V18.5253H90.6057L90.6185 18.5191ZM111.245 25.2842C111.245 25.2842 105.739 25.278 101.618 25.278C95.1947 25.278 90.9408 20.8052 90.8017 14.9471C90.6627 9.1076 95.3405 4.79012 101.233 4.79012H109.412V10.5613C108.571 8.93366 106.593 5.27468 103.451 5.26846C100.063 5.26225 96.8635 9.44927 96.8635 15.5621C96.8635 20.2337 100.512 24.7996 102.794 24.7996C104.386 24.7996 104.873 23.5261 104.873 22.8428V15.8975C104.873 15.2888 103.957 14.9844 103.539 14.9844L103.552 14.8974H111.258V14.9595C110.821 14.9595 110.683 15.4937 110.683 15.8292V24.2964C110.683 24.6194 110.954 25.2407 111.251 25.2407V25.2842H111.245ZM70.6364 10.406V4.81497H63.9547C57.0707 4.81497 55.2186 7.67258 55.2186 10.729C55.2186 14.127 57.6143 15.5186 58.8597 16.1212C60.1872 16.7735 63.8409 17.8979 64.9535 18.3079C66.0723 18.7178 67.5136 19.3018 67.5136 21.3394C67.5136 23.377 65.2948 24.7251 63.2657 24.7251C59.5108 24.7251 55.9581 21.9358 55.4018 18.5066H55.345V25.2531C55.345 25.2531 60.8761 25.2158 63.5058 25.2531C67.7476 25.3091 72.299 23.4392 72.4823 18.9477C72.5392 17.4817 72.0082 13.9842 67.3114 12.3877C65.0863 11.6297 63.9295 11.6235 62.5324 11.0147C61.1354 10.406 59.5676 8.5982 61.1859 6.70969C62.5324 5.13179 67.9625 3.41723 70.6174 10.406H70.6364Z" fill="white"/>
<path d="M120.607 13.0016V4.84351H122.06V11.6613H125.781V13.0016H120.607Z" fill="white"/>
<path d="M128.244 8.92279C128.244 6.55696 130.005 4.71558 132.545 4.71558C135.002 4.71558 136.857 6.38215 136.857 8.92279C136.857 11.3702 135.002 13.13 132.545 13.13C130.088 13.13 128.244 11.4635 128.244 8.92279ZM129.78 8.92279C129.78 10.5544 130.997 11.7898 132.545 11.7898C134.281 11.7898 135.321 10.5311 135.321 8.92279C135.321 7.23291 134.103 6.05583 132.545 6.05583C130.962 6.05583 129.78 7.23291 129.78 8.92279Z" fill="white"/>
<path d="M147.728 13.0016H146.571L142.023 7.34918V13.0016H140.664V4.84351H141.822L146.37 10.5192V4.84351H147.728V13.0016Z" fill="white"/>
<path d="M155.585 9.94837V8.60813H158.94V11.9879C158.208 12.7104 156.873 13.13 155.845 13.13C153.139 13.13 151.533 11.4635 151.533 8.92279C151.533 6.58027 153.127 4.71558 155.655 4.71558C156.837 4.71558 157.64 5.01859 158.313 5.54303L157.699 6.68516C157.286 6.30057 156.554 6.05583 155.833 6.05583C154.238 6.05583 153.068 7.10471 153.068 8.92279C153.068 10.6593 154.191 11.7898 155.868 11.7898C156.506 11.7898 157.274 11.5217 157.581 11.2303V9.94837H155.585Z" fill="white"/>
<path d="M120.607 25.1559V16.9978H122.24V25.1559H120.607Z" fill="white"/>
<path d="M131.13 22.9881C131.13 21.3799 126.922 21.7761 126.922 19.1189C126.922 17.8953 128.01 16.8696 129.816 16.8696C130.957 16.8696 131.913 17.2076 132.471 17.7437L131.595 18.8159C131.143 18.4313 130.692 18.2099 129.949 18.2099C129.139 18.2099 128.648 18.5711 128.648 19.1073C128.648 20.7971 132.856 20.261 132.856 22.9765C132.856 24.3517 131.488 25.2841 129.749 25.2841C128.555 25.2841 127.161 24.8295 126.71 24.0021L127.639 23.0231C128.183 23.6408 129.059 23.9438 129.777 23.9438C130.546 23.9438 131.13 23.6058 131.13 22.9881Z" fill="white"/>
<path d="M137.127 25.1559V16.9978H138.759V23.8156H142.941V25.1559H137.127Z" fill="white"/>
<path d="M145.58 25.156L149.51 16.9746H150.943L154.872 25.156H153.133L152.165 23.0698H148.195L147.227 25.156H145.58ZM150.187 18.8277L148.82 21.7296H151.54L150.187 18.8277Z" fill="white"/>
<path d="M166.592 25.1559H165.291L160.18 19.5035V25.1559H158.653V16.9978H159.955L165.065 22.6735V16.9978H166.592V25.1559Z" fill="white"/>
<path d="M171.557 25.1557V16.9976H171.73C172.287 16.9976 173.614 16.9626 174.291 16.9626C178.009 16.9626 179.508 18.839 179.508 20.995C179.508 23.291 177.729 25.179 174.185 25.179C173.628 25.179 172.593 25.1557 171.743 25.1557H171.557ZM174.265 18.3029C173.88 18.3029 173.561 18.3146 173.19 18.3378V23.8155C173.641 23.8387 174.013 23.8387 174.238 23.8387C176.482 23.8387 177.782 22.7199 177.782 20.995C177.782 19.3518 176.482 18.3029 174.265 18.3029Z" fill="white"/>
</g>
</g>
</g>
</g>
<defs>
<clipPath id="clip0_22_1439">
<rect width="179.508" height="28.0481" fill="white" transform="translate(0 0.97583)"/>
</clipPath>
<clipPath id="clip1_22_1439">
<rect width="179.508" height="28.0481" fill="white" transform="translate(0 0.97583)"/>
</clipPath>
<clipPath id="clip2_22_1439">
<rect width="179.508" height="28.0481" fill="white" transform="translate(0 0.97583)"/>
</clipPath>
</defs>
</svg>
